PathFileType	4	(X/Y/Z)	G:\マイドライブ\biomec\experimentalData\240725\SJ3.trc
DataRate	CameraRate	NumFrames	NumMarkers	Units	OrigDataRate	OrigDataStartFrame	OrigNumFrames
200.00	200.00	      4	52	mm	200.00	1207	      1608
Frame#	Time	handR			wrRI			wrRO			elbRI			elbRO			shRF			shRU			shRB			handL			wrLI			wrLO			elbLI			elbLO			shLF			shLU			shLB			toeR			baRI			baRO			heelR			anRI			anRO			knRI			knRO			troR			toeL			baLI			baLO			heelL			anLI			anLO			knLI			knLO			troL			head			earR			earL			clav			c7			ribR			ribL			xiph			ASISR			ASISL			PSISR			PSISL			t8			t11			L1			L3			LS			COX			
		X1	Y1	Z1	X2	Y2	Z2	X3	Y3	Z3	X4	Y4	Z4	X5	Y5	Z5	X6	Y6	Z6	X7	Y7	Z7	X8	Y8	Z8	X9	Y9	Z9	X10	Y10	Z10	X11	Y11	Z11	X12	Y12	Z12	X13	Y13	Z13	X14	Y14	Z14	X15	Y15	Z15	X16	Y16	Z16	X17	Y17	Z17	X18	Y18	Z18	X19	Y19	Z19	X20	Y20	Z20	X21	Y21	Z21	X22	Y22	Z22	X23	Y23	Z23	X24	Y24	Z24	X25	Y25	Z25	X26	Y26	Z26	X27	Y27	Z27	X28	Y28	Z28	X29	Y29	Z29	X30	Y30	Z30	X31	Y31	Z31	X32	Y32	Z32	X33	Y33	Z33	X34	Y34	Z34	X35	Y35	Z35	X36	Y36	Z36	X37	Y37	Z37	X38	Y38	Z38	X39	Y39	Z39	X40	Y40	Z40	X41	Y41	Z41	X42	Y42	Z42	X43	Y43	Z43	X44	Y44	Z44	X45	Y45	Z45	X46	Y46	Z46	X47	Y47	Z47	X48	Y48	Z48	X49	Y49	Z49	X50	Y50	Z50	X51	Y51	Z51	X52	Y52	Z52	

1207	6.030	621.75916	814.98572	1039.83289	593.36725	746.53693	1010.62238	541.70831	784.70251	1044.14783	436.27615	638.66876	1169.75891	500.11057	590.03381	1181.10046	615.03339	781.62811	1401.63831	507.72412	753.68634	1393.92163	560.81458	749.89825	1429.02698	617.03644	1100.86279	1060.01477	583.52325	1171.82666	1029.21289	539.70801	1125.64917	1073.59412	449.88864	1281.49548	1195.99902	519.38489	1328.32898	1202.85938	620.43329	1104.89050	1403.70313	505.60516	1126.37939	1387.10364	567.92358	1139.49695	1430.50623	662.05359	740.78668	46.52265	586.59839	798.66364	34.79449	546.47339	677.76758	40.03276	380.06464	794.10602	39.55894	470.51755	819.15729	110.61140	436.89545	728.82611	104.38436	503.91214	859.43475	467.55551	510.10883	756.49945	480.12402	562.47845	788.47394	868.49445	669.34064	1090.11560	58.88745	600.54120	1037.83533	65.07254	567.50470	1145.04626	44.48369	384.88461	1067.14124	47.85799	487.27533	1036.77087	140.54434	453.85406	1125.22827	114.20475	593.68359	1028.56458	477.92896	591.95953	1136.63269	483.00797	570.57928	1132.95532	877.49945	532.89801	958.93219	1705.23621	624.65918	865.98114	1568.07019	637.62311	1025.19141	1561.75342	641.17572	946.20831	1393.62915	516.90021	950.94434	1470.66443	620.65546	847.43939	1092.36902	616.37549	1063.96448	1099.39209	672.01294	948.62329	1235.96985	632.16125	849.09094	956.73621	626.98438	1068.53589	981.03406	460.82462	896.15735	994.25677	461.45660	1016.97180	1004.72491	452.97870	951.77484	1260.37244	461.11163	952.61292	1136.34998	469.14468	956.83563	1077.73376	463.58401	954.54504	1031.02380	450.84085	957.41003	991.89325	424.87875	966.14459	889.08881	
1208	6.035	621.30609	816.04712	1039.89087	592.86298	747.43658	1010.52563	541.23364	785.83148	1044.04578	435.67642	639.80786	1169.82361	499.51959	591.24097	1181.09985	614.73157	782.94861	1401.35779	507.51218	754.82092	1393.92236	560.80652	750.97876	1428.82654	617.22992	1101.25427	1059.32703	583.67688	1172.76477	1028.88928	539.85657	1126.81104	1073.25867	450.68097	1282.92200	1195.82104	520.19373	1329.79688	1202.51379	621.06049	1106.13794	1403.42847	506.13028	1127.64514	1386.79407	568.39624	1140.59326	1430.21326	661.76361	740.34766	46.82654	586.61340	798.65125	34.78542	546.47107	677.71222	39.99642	380.08752	794.10529	39.53955	470.52286	819.17828	110.55856	436.93274	728.83057	104.36568	504.26382	859.35162	467.32507	509.93661	756.65820	480.13449	561.53589	789.07288	868.57770	668.43341	1089.89331	58.78035	598.90765	1039.09058	65.54576	567.43317	1146.32458	45.08976	383.46173	1071.57776	50.08309	486.45074	1039.56934	141.66098	454.05289	1128.62292	115.62222	597.62866	1030.52234	477.76068	596.81952	1138.31372	482.88364	571.64465	1133.61560	877.08771	533.07153	960.40601	1705.02185	624.35870	867.34125	1567.52417	638.65894	1025.88672	1561.51819	641.19794	947.10712	1393.31409	517.19354	952.31219	1470.50769	620.04608	848.26508	1092.27795	616.17249	1064.84863	1098.95056	671.97400	949.15790	1235.58643	631.20172	849.46454	956.87036	627.13257	1068.96265	980.70087	460.01682	897.43158	994.36041	461.42526	1018.49371	1004.60217	452.80792	952.92365	1260.35205	460.76080	953.77075	1136.31409	468.87909	957.81732	1077.62854	463.03021	955.73431	1030.94849	450.20532	958.76904	991.89539	424.75531	967.82867	888.83038	
1209	6.040	620.76086	816.85602	1039.89270	592.29742	748.38721	1010.59259	540.43054	787.08545	1044.08240	434.87988	641.04749	1169.95752	498.65799	592.19922	1181.06812	614.48383	784.01160	1401.05066	507.27252	756.21832	1393.94165	560.63104	752.28284	1428.72742	617.22223	1102.20288	1058.97754	583.80304	1173.64722	1028.52991	540.05829	1127.76855	1072.99658	451.44653	1284.49011	1195.57458	521.06677	1330.94189	1202.28589	621.49304	1107.21191	1403.17554	506.59738	1128.96667	1386.52637	569.11322	1141.88696	1429.91980	661.77191	740.30676	46.78841	586.62231	798.62189	34.77761	546.47852	677.66364	39.97062	380.07474	794.10480	39.54606	470.55551	819.23499	110.53660	436.96173	728.84009	104.37640	502.84546	860.74615	467.49030	509.75427	756.82190	480.14944	560.17853	789.65143	868.71075	667.31866	1089.92871	58.88084	597.59015	1039.58765	66.42340	567.20081	1147.94995	45.89607	382.07791	1076.18591	52.34179	485.69720	1043.04028	143.16301	454.15247	1132.01013	117.26064	601.63770	1032.07031	477.70999	601.44696	1139.79260	482.97534	572.69727	1134.33276	876.88654	533.59912	961.98492	1704.74805	624.27423	867.72382	1567.35767	639.69092	1026.86902	1561.21521	640.40161	948.02185	1392.42468	517.43512	953.63257	1470.39929	619.40674	849.25226	1092.09790	616.18219	1065.58044	1098.53589	671.87823	949.78448	1235.13965	630.16345	849.93799	956.87543	627.57666	1068.92126	980.76239	459.31598	898.82495	994.43665	461.28244	1019.75592	1004.25940	452.70111	954.48651	1260.32764	460.45740	955.35059	1136.28601	468.48236	959.40979	1077.43506	462.67950	956.99347	1030.85620	449.82343	960.19128	991.77106	424.63986	969.27264	888.67798	
1210	6.045	620.07086	817.87231	1039.93640	591.52179	749.55188	1010.49634	540.02386	787.88483	1044.05493	434.21143	642.09106	1170.03406	498.06940	593.33667	1181.13586	614.31830	785.18671	1400.68579	507.20145	757.28656	1393.89941	560.53503	753.50171	1428.58325	617.56238	1103.91187	1058.95190	583.93823	1174.82910	1028.27588	540.13092	1129.08179	1072.86218	452.36273	1285.86255	1195.29187	521.97974	1332.42358	1202.03430	621.89172	1108.50403	1402.83447	507.21326	1130.46948	1386.29248	569.63300	1143.08630	1429.61047	661.78229	740.30328	46.75224	586.64142	798.57660	34.75527	546.46869	677.62079	39.93365	380.08112	794.11774	39.55949	470.62646	819.25464	110.51258	436.99500	728.87640	104.38034	502.90942	860.97485	467.38681	509.58566	756.96417	480.16919	558.99359	790.35272	868.87781	665.99805	1090.45422	59.26798	595.49866	1041.03540	67.16538	566.87311	1149.91187	46.96090	380.69510	1081.24597	54.65014	484.54874	1046.20947	144.73930	454.21909	1135.87805	119.14993	605.40808	1033.86047	477.55856	606.15167	1141.43750	482.99869	575.12445	1133.83191	876.35333	534.14209	963.61865	1704.46667	623.96716	868.89288	1566.93042	640.65656	1027.68811	1560.95618	640.51062	949.02087	1392.04114	517.67572	955.20282	1470.32385	618.11206	850.48499	1092.41357	616.43323	1066.62231	1098.21814	671.65381	950.95453	1234.65576	629.11127	850.53253	956.97504	627.77948	1069.54163	980.43585	458.52637	900.18286	994.41815	461.19885	1021.24567	1003.99152	452.54694	956.14911	1260.30945	460.16794	956.76276	1136.34436	468.07193	960.59363	1077.36646	462.34192	958.41223	1030.68799	449.58957	961.45905	991.67883	424.66257	970.93701	888.40295	
